[Header]
FileType HTR
DataType HTRS
FileVersion 1
NumSegments 64
NumFrames 4
DataFrameRate 24
EulerRotationOrder ZYX
CalibrationUnits mm
RotationUnits Degrees
GlobalAxisofGravity Y
BoneLengthAxis Y
ScaleFactor 1.0
[SegmentNames&Hierarchy]
Hips	GLOBAL
Spine	Hips
Spine1	Spine
Spine2	Spine1
Neck	Spine2
Head	Neck
LeftEye	Head
RightEye	Head
LeftShoulder	Spine2
LeftArm	LeftShoulder
LeftForeArm	LeftArm
LeftHand	LeftForeArm
LeftHandThumb1	LeftHand
LeftHandThumb2	LeftHandThumb1
LeftHandThumb3	LeftHandThumb2
LeftHandThumb4	LeftHandThumb3
LeftHandIndex1	LeftHand
LeftHandIndex2	LeftHandIndex1
LeftHandIndex3	LeftHandIndex2
LeftHandIndex4	LeftHandIndex3
LeftHandMiddle1	LeftHand
LeftHandMiddle2	LeftHandMiddle1
LeftHandMiddle3	LeftHandMiddle2
LeftHandMiddle4	LeftHandMiddle3
LeftHandRing1	LeftHand
LeftHandRing2	LeftHandRing1
LeftHandRing3	LeftHandRing2
LeftHandRing4	LeftHandRing3
LeftHandPinky1	LeftHand
LeftHandPinky2	LeftHandPinky1
LeftHandPinky3	LeftHandPinky2
LeftHandPinky4	LeftHandPinky3
RightShoulder	Spine2
RightArm	RightShoulder
RightForeArm	RightArm
RightHand	RightForeArm
RightHandPinky1	RightHand
RightHandPinky2	RightHandPinky1
RightHandPinky3	RightHandPinky2
RightHandPinky4	RightHandPinky3
RightHandRing1	RightHand
RightHandRing2	RightHandRing1
RightHandRing3	RightHandRing2
RightHandRing4	RightHandRing3
RightHandMiddle1	RightHand
RightHandMiddle2	RightHandMiddle1
RightHandMiddle3	RightHandMiddle2
RightHandMiddle4	RightHandMiddle3
RightHandIndex1	RightHand
RightHandIndex2	RightHandIndex1
RightHandIndex3	RightHandIndex2
RightHandIndex4	RightHandIndex3
RightHandThumb1	RightHand
RightHandThumb2	RightHandThumb1
RightHandThumb3	RightHandThumb2
RightHandThumb4	RightHandThumb3
LeftUpLeg	Hips
LeftLeg	LeftUpLeg
LeftFoot	LeftLeg
LeftToeBase	LeftFoot
RightUpLeg	Hips
RightLeg	RightUpLeg
RightFoot	RightLeg
RightToeBase	RightFoot
[BasePosition]
Hips	0	0	0	0	0	0	1
Spine	0	0	0	0	0	0	1
Spine1	0	0	0	0	0	0	1
Spine2	0	0	0	0	0	0	1
Neck	0	0	0	0	0	0	1
Head	0	0	0	0	0	0	1
LeftEye	0	0	0	0	0	0	1
RightEye	0	0	0	0	0	0	1
LeftShoulder	0	0	0	0	0	0	1
LeftArm	0	0	0	0	0	0	1
LeftForeArm	0	0	0	0	0	0	1
LeftHand	0	0	0	0	0	0	1
LeftHandThumb1	0	0	0	0	0	0	1
LeftHandThumb2	0	0	0	0	0	0	1
LeftHandThumb3	0	0	0	0	0	0	1
LeftHandThumb4	0	0	0	0	0	0	1
LeftHandIndex1	0	0	0	0	0	0	1
LeftHandIndex2	0	0	0	0	0	0	1
LeftHandIndex3	0	0	0	0	0	0	1
LeftHandIndex4	0	0	0	0	0	0	1
LeftHandMiddle1	0	0	0	0	0	0	1
LeftHandMiddle2	0	0	0	0	0	0	1
LeftHandMiddle3	0	0	0	0	0	0	1
LeftHandMiddle4	0	0	0	0	0	0	1
LeftHandRing1	0	0	0	0	0	0	1
LeftHandRing2	0	0	0	0	0	0	1
LeftHandRing3	0	0	0	0	0	0	1
LeftHandRing4	0	0	0	0	0	0	1
LeftHandPinky1	0	0	0	0	0	0	1
LeftHandPinky2	0	0	0	0	0	0	1
LeftHandPinky3	0	0	0	0	0	0	1
LeftHandPinky4	0	0	0	0	0	0	1
RightShoulder	0	0	0	0	0	0	1
RightArm	0	0	0	0	0	0	1
RightForeArm	0	0	0	0	0	0	1
RightHand	0	0	0	0	0	0	1
RightHandPinky1	0	0	0	0	0	0	1
RightHandPinky2	0	0	0	0	0	0	1
RightHandPinky3	0	0	0	0	0	0	1
RightHandPinky4	0	0	0	0	0	0	1
RightHandRing1	0	0	0	0	0	0	1
RightHandRing2	0	0	0	0	0	0	1
RightHandRing3	0	0	0	0	0	0	1
RightHandRing4	0	0	0	0	0	0	1
RightHandMiddle1	0	0	0	0	0	0	1
RightHandMiddle2	0	0	0	0	0	0	1
RightHandMiddle3	0	0	0	0	0	0	1
RightHandMiddle4	0	0	0	0	0	0	1
RightHandIndex1	0	0	0	0	0	0	1
RightHandIndex2	0	0	0	0	0	0	1
RightHandIndex3	0	0	0	0	0	0	1
RightHandIndex4	0	0	0	0	0	0	1
RightHandThumb1	0	0	0	0	0	0	1
RightHandThumb2	0	0	0	0	0	0	1
RightHandThumb3	0	0	0	0	0	0	1
RightHandThumb4	0	0	0	0	0	0	1
LeftUpLeg	0	0	0	0	0	0	1
LeftLeg	0	0	0	0	0	0	1
LeftFoot	0	0	0	0	0	0	1
LeftToeBase	0	0	0	0	0	0	1
RightUpLeg	0	0	0	0	0	0	1
RightLeg	0	0	0	0	0	0	1
RightFoot	0	0	0	0	0	0	1
RightToeBase	0	0	0	0	0	0	1
[Hips]
1	-11.65678024	988.225769	5.348737717	-13.35840797	-47.55239868	6.767032146	1.0
2	-11.6165781	988.4484253	5.721925735	-13.08239841	-47.24126816	6.591890812	1.0
3	-11.57637501	988.6711426	6.095113754	-12.80638981	-46.93013763	6.416748524	1.0
4	-11.47704601	989.0127563	6.518321991	-12.49560547	-46.57479477	6.221688271	1.0
[Spine]
1	0	101.8159943	1.315000057	1.480259061	0.4299694002	-0.14910689	1.0
2	0	101.8159943	1.315000057	1.507623792	0.4431277215	-0.1506483406	1.0
3	0	101.8159943	1.315000057	1.534988642	0.4562860131	-0.1521897614	1.0
4	0	101.8159943	1.315000057	1.558270931	0.4671860337	-0.1519425958	1.0
[Spine1]
1	0	100.8349991	-10.00800037	2.961585045	0.6345062256	0.4196281135	1.0
2	0	100.8349991	-10.00800037	3.016319513	0.6678977013	0.389945209	1.0
3	0	100.8349991	-10.00800037	3.071053743	0.7012891769	0.3602623045	1.0
4	0	100.8349991	-10.00800037	3.117611408	0.7312824726	0.3304850757	1.0
[Spine2]
1	0	91	-13.73399925	2.96158576	0.6345163584	0.4196294844	1.0
2	0	91	-13.73399925	3.016319036	0.6679037213	0.3899459243	1.0
3	0	91	-13.73399925	3.071052551	0.7012909651	0.3602622747	1.0
4	0	91	-13.73399925	3.117609262	0.7312802076	0.3304848373	1.0
[Neck]
1	0	166.7169952	-25.16200066	14.28000259	6.046374798	-2.285687685	1.0
2	0	166.7169952	-25.16200066	14.1376543	5.966883183	-2.127512693	1.0
3	0	166.7169952	-25.16200066	13.99530506	5.887392044	-1.969337583	1.0
4	0	166.7169952	-25.16200066	13.8528347	5.800228119	-1.797254801	1.0
[Head]
1	0	96.17900085	16.84999847	-2.601031303	29.88977242	-6.528122902	1.0
2	0	96.17900085	16.84999847	-2.664006472	29.79008675	-6.55266571	1.0
3	0	96.17900085	16.84999847	-2.726981401	29.69040108	-6.577209473	1.0
4	0	96.17900085	16.84999847	-2.761450768	29.58093452	-6.609731674	1.0
[LeftEye]
1	30.6760006	64.09500122	92.83599854	0	0	0	1.0
2	30.6760006	64.09500122	92.83599854	0	0	0	1.0
3	30.6760006	64.09500122	92.83599854	0	0	0	1.0
4	30.6760006	64.09500122	92.83599854	0	0	0	1.0
[RightEye]
1	-30.6760006	64.09500122	92.83499908	0	0	0	1.0
2	-30.6760006	64.09500122	92.83499908	0	0	0	1.0
3	-30.6760006	64.09500122	92.83499908	0	0	0	1.0
4	-30.6760006	64.09500122	92.83499908	0	0	0	1.0
[LeftShoulder]
1	45.70400238	109.4599991	-26.28000069	0.3824349642	-19.19978333	-0.2880051136	1.0
2	45.70400238	109.4599991	-26.28000069	0.3831138909	-19.21967125	-0.2973810732	1.0
3	45.70400238	109.4599991	-26.28000069	0.3837927878	-19.23955727	-0.3067569733	1.0
4	45.70400238	109.4599991	-26.28000069	0.39447999	-19.24848175	-0.3515017927	1.0
[LeftArm]
1	105.923996	-5.24600029	-22.32099915	-47.41984177	9.509555817	-36.37831497	1.0
2	105.923996	-5.24600029	-22.32099915	-47.4093895	9.112994194	-36.31319046	1.0
3	105.923996	-5.24600029	-22.32099915	-47.39894104	8.716431618	-36.24806595	1.0
4	105.923996	-5.24600029	-22.32099915	-47.32323456	8.248244286	-36.18670273	1.0
[LeftForeArm]
1	278.414978	-0.0009999999311	0	-6.737579346	-117.1767883	3.73109436	1.0
2	278.414978	-0.0009999999311	0	-6.71084547	-117.1059647	3.708461523	1.0
3	278.414978	-0.0009999999311	0	-6.684112072	-117.0351334	3.685828924	1.0
4	278.414978	-0.0009999999311	0	-6.646789551	-116.946846	3.65713501	1.0
[LeftHand]
1	283.2879944	0	0	7.55291605	2.800012827	0.1537014395	1.0
2	283.2879944	0	0	7.316091537	2.89428997	-0.06126396731	1.0
3	283.2879944	0	0	7.079266548	2.988566875	-0.2762293816	1.0
4	283.2879944	0	0	6.871880531	3.040878534	-0.4731505215	1.0
[LeftHandThumb1]
1	24.6609993	-15.75	26.8239994	10.27406406	-16.38525391	-1.318416595	1.0
2	24.6609993	-15.75	26.8239994	10.27874088	-16.3920269	-1.313220739	1.0
3	24.6609993	-15.75	26.8239994	10.28341675	-16.3987999	-1.308024764	1.0
4	24.6609993	-15.75	26.8239994	10.2891674	-16.40714455	-1.301613569	1.0
[LeftHandThumb2]
1	32.29800034	-18.64699936	18.64699936	-1.242076278	35.04988098	-48.83063889	1.0
2	32.29800034	-18.64699936	18.64699936	-1.244508862	35.04838943	-48.84132004	1.0
3	32.29800034	-18.64699936	18.64699936	-1.246941447	35.0469017	-48.85199356	1.0
4	32.29800034	-18.64699936	18.64699936	-1.249893665	35.0450325	-48.86509705	1.0
[LeftHandThumb3]
1	26.52600098	-15.31499958	15.31499958	3.601811159e-06	-8.438974328e-05	-6.943767221e-05	1.0
2	26.52600098	-15.31499958	15.31499958	3.601811159e-06	-8.438974328e-05	-6.943767221e-05	1.0
3	26.52600098	-15.31499958	15.31499958	3.601811159e-06	-8.438974328e-05	-6.943767221e-05	1.0
4	26.52600098	-15.31499958	15.31499958	3.601811159e-06	-8.438974328e-05	-6.943767221e-05	1.0
[LeftHandThumb4]
1	19.54599953	-11.28499985	11.28499985	0	0	0	1.0
2	19.54599953	-11.28499985	11.28499985	0	0	0	1.0
3	19.54599953	-11.28499985	11.28499985	0	0	0	1.0
4	19.54599953	-11.28499985	11.28499985	0	0	0	1.0
[LeftHandIndex1]
1	91.09299469	-5.170999527	22.60099792	4.757619858	-1.945107341	-108.7756958	1.0
2	91.09299469	-5.170999527	22.60099792	4.75762701	-1.945110559	-108.7757416	1.0
3	91.09299469	-5.170999527	22.60099792	4.757634163	-1.945113897	-108.775795	1.0
4	91.09299469	-5.170999527	22.60099792	4.757626057	-1.945108414	-108.7757111	1.0
[LeftHandIndex2]
1	36.76399994	0	0	-0.3196705878	-8.598956108	-95.1112442	1.0
2	36.76399994	0	0	-0.3196657598	-8.598963737	-95.11130524	1.0
3	36.76399994	0	0	-0.3196609616	-8.598970413	-95.11138153	1.0
4	36.76399994	0	0	-0.3196739256	-8.598959923	-95.11125946	1.0
[LeftHandIndex3]
1	28.83100128	0	0	-1.432096042e-06	3.907105395e-07	1.552835329e-06	1.0
2	28.83100128	0	0	-1.432096042e-06	3.907105395e-07	1.552835329e-06	1.0
3	28.83100128	0	0	-1.432096042e-06	3.907105395e-07	1.552835329e-06	1.0
4	28.83100128	0	0	-1.432096042e-06	3.907105395e-07	1.552835329e-06	1.0
[LeftHandIndex4]
1	23.92700005	0	0	0	0	0	1.0
2	23.92700005	0	0	0	0	0	1.0
3	23.92700005	0	0	0	0	0	1.0
4	23.92700005	0	0	0	0	0	1.0
[LeftHandMiddle1]
1	95.33399963	0	0	1.404794574	-7.958361626	-103.4222412	1.0
2	95.33399963	0	0	1.404740095	-7.958159924	-103.4223099	1.0
3	95.33399963	0	0	1.404685736	-7.957959175	-103.4223709	1.0
4	95.33399963	0	0	1.404606938	-7.957714081	-103.4223099	1.0
[LeftHandMiddle2]
1	36.98199844	0	0	1.159435987	-8.956150055	-94.79908752	1.0
2	36.98199844	0	0	1.159442902	-8.95615387	-94.79914093	1.0
3	36.98199844	0	0	1.159449816	-8.956156731	-94.79919434	1.0
4	36.98199844	0	0	1.159438729	-8.956149101	-94.7990799	1.0
[LeftHandMiddle3]
1	29.50900078	0	0	0	-3.180554719e-15	-7.951386796e-16	1.0
2	29.50900078	0	0	0	-3.180554719e-15	-7.951386796e-16	1.0
3	29.50900078	0	0	0	-3.180554719e-15	-7.951386796e-16	1.0
4	29.50900078	0	0	0	-3.180554719e-15	-7.951386796e-16	1.0
[LeftHandMiddle4]
1	28.3390007	0	0	0	0	0	1.0
2	28.3390007	0	0	0	0	0	1.0
3	28.3390007	0	0	0	0	0	1.0
4	28.3390007	0	0	0	0	0	1.0
[LeftHandRing1]
1	91.04499817	-0.4390000105	-18.65100098	-3.181962013	-10.61867046	-108.2252274	1.0
2	91.04499817	-0.4390000105	-18.65100098	-3.181954145	-10.61867619	-108.2252731	1.0
3	91.04499817	-0.4390000105	-18.65100098	-3.181946039	-10.61868382	-108.2253189	1.0
4	91.04499817	-0.4390000105	-18.65100098	-3.181957006	-10.61867237	-108.225235	1.0
[LeftHandRing2]
1	31.54000092	0	0	7.172859192	-2.354171753	-86.57150269	1.0
2	31.54000092	0	0	7.172863007	-2.354169369	-86.57156372	1.0
3	31.54000092	0	0	7.172867775	-2.354167223	-86.57161713	1.0
4	31.54000092	0	0	7.172859669	-2.35417223	-86.57151031	1.0
[LeftHandRing3]
1	29.37700081	0	0	1.590277359e-15	3.180554719e-15	-7.951386796e-16	1.0
2	29.37700081	0	0	1.590277359e-15	3.180554719e-15	-7.951386796e-16	1.0
3	29.37700081	0	0	1.590277359e-15	3.180554719e-15	-7.951386796e-16	1.0
4	29.37700081	0	0	1.590277359e-15	3.180554719e-15	-7.951386796e-16	1.0
[LeftHandRing4]
1	26.47500038	0	0	0	0	0	1.0
2	26.47500038	0	0	0	0	0	1.0
3	26.47500038	0	0	0	0	0	1.0
4	26.47500038	0	0	0	0	0	1.0
[LeftHandPinky1]
1	80.77799988	-4.887000084	-38.06099701	-2.318611622	-14.83050346	-110.2976074	1.0
2	80.77799988	-4.887000084	-38.06099701	-2.318749905	-14.83045769	-110.297081	1.0
3	80.77799988	-4.887000084	-38.06099701	-2.318887949	-14.83041096	-110.2965698	1.0
4	80.77799988	-4.887000084	-38.06099701	-2.319082737	-14.83033085	-110.2957687	1.0
[LeftHandPinky2]
1	36	0	0	11.51484585	0.7685707808	-94.02005005	1.0
2	36	0	0	11.51482201	0.7690516114	-94.02268982	1.0
3	36	0	0	11.51479816	0.7695323825	-94.02534485	1.0
4	36	0	0	11.5147543	0.7700991035	-94.02845001	1.0
[LeftHandPinky3]
1	21.14200211	0	0	3.226109357e-06	2.925280342e-06	-5.739977951e-06	1.0
2	21.14200211	0	0	3.226109357e-06	2.925280342e-06	-5.739977951e-06	1.0
3	21.14200211	0	0	3.226109357e-06	2.925280342e-06	-5.739977951e-06	1.0
4	21.14200211	0	0	3.226109357e-06	2.925280342e-06	-5.739977951e-06	1.0
[LeftHandPinky4]
1	19.75699997	0	0	0	0	0	1.0
2	19.75699997	0	0	0	0	0	1.0
3	19.75699997	0	0	0	0	0	1.0
4	19.75699997	0	0	0	0	0	1.0
[RightShoulder]
1	-45.70000076	109.4620056	-26.28000069	-0.2573672533	-3.679485321	1.982535839	1.0
2	-45.70000076	109.4620056	-26.28000069	-0.2645599842	-3.702370405	2.317247629	1.0
3	-45.70000076	109.4620056	-26.28000069	-0.2717526853	-3.725255251	2.651959419	1.0
4	-45.70000076	109.4620056	-26.28000069	-0.2765643001	-3.729097366	3.031629562	1.0
[RightArm]
1	-105.9280014	-5.248000145	-22.32099915	63.99015427	56.12335968	96.68294525	1.0
2	-105.9280014	-5.248000145	-22.32099915	63.60981369	56.03704071	96.14636993	1.0
3	-105.9280014	-5.248000145	-22.32099915	63.22947311	55.95072937	95.60979462	1.0
4	-105.9280014	-5.248000145	-22.32099915	62.80860519	55.83930206	94.98995209	1.0
[RightForeArm]
1	-278.414978	0	0	1.960266113	109.6549149	2.919921875	1.0
2	-278.414978	0	0	1.921041965	109.9275284	2.858863354	1.0
3	-278.414978	0	0	1.881817937	110.2001495	2.797805309	1.0
4	-278.414978	0	0	1.836502075	110.4776306	2.731124878	1.0
[RightHand]
1	-283.2879944	0	0.0009999999311	19.75494003	15.66271019	1.574255228	1.0
2	-283.2879944	0	0.0009999999311	19.64146805	16.01803017	0.8673906922	1.0
3	-283.2879944	0	0.0009999999311	19.52799797	16.37335014	0.1605261713	1.0
4	-283.2879944	0	0.0009999999311	19.4247551	16.71446037	-0.4776772261	1.0
[RightHandPinky1]
1	-80.76699829	-4.885000229	-38.06000137	0.8437774181	14.82966137	110.2977066	1.0
2	-80.76699829	-4.885000229	-38.06000137	0.8436328173	14.82961655	110.2971725	1.0
3	-80.76699829	-4.885000229	-38.06000137	0.8434881568	14.82957172	110.2966309	1.0
4	-80.76699829	-4.885000229	-38.06000137	0.8432902098	14.82948971	110.2958145	1.0
[RightHandPinky2]
1	-36	0	0.0009999999311	14.90034962	2.385694742	94.02323151	1.0
2	-36	0	0.0009999999311	14.9004631	2.385200739	94.02589417	1.0
3	-36	0	0.0009999999311	14.90057468	2.384707212	94.02856445	1.0
4	-36	0	0.0009999999311	14.90069962	2.384124517	94.03168488	1.0
[RightHandPinky3]
1	-21.14200211	0	0	-1.590277359e-15	0	-7.951386796e-16	1.0
2	-21.14200211	0	0	-1.590277359e-15	0	-7.951386796e-16	1.0
3	-21.14200211	0	0	-1.590277359e-15	0	-7.951386796e-16	1.0
4	-21.14200211	0	0	-1.590277359e-15	0	-7.951386796e-16	1.0
[RightHandPinky4]
1	-19.75699997	0	0	0	0	0	1.0
2	-19.75699997	0	0	0	0	0	1.0
3	-19.75699997	0	0	0	0	0	1.0
4	-19.75699997	0	0	0	0	0	1.0
[RightHandRing1]
1	-91.03599548	-0.4390000105	-18.65100098	-1.728644371	10.6194334	108.2253342	1.0
2	-91.03599548	-0.4390000105	-18.65100098	-1.728641987	10.61943913	108.2253647	1.0
3	-91.03599548	-0.4390000105	-18.65100098	-1.728639722	10.61944294	108.2254028	1.0
4	-91.03599548	-0.4390000105	-18.65100098	-1.728655457	10.61943054	108.225296	1.0
[RightHandRing2]
1	-31.54000092	0	0	8.523524284	3.727946997	86.54672241	1.0
2	-31.54000092	0	0	8.523530006	3.727945566	86.54676819	1.0
3	-31.54000092	0	0	8.523535728	3.727943897	86.54682159	1.0
4	-31.54000092	0	0	8.523526192	3.727948189	86.54672241	1.0
[RightHandRing3]
1	-29.37700081	0	0	5.740008078e-07	-7.531911024e-07	-2.69121324e-06	1.0
2	-29.37700081	0	0	5.740008078e-07	-7.531911024e-07	-2.69121324e-06	1.0
3	-29.37700081	0	0	5.740008078e-07	-7.531911024e-07	-2.69121324e-06	1.0
4	-29.37700081	0	0	5.740008078e-07	-7.531911024e-07	-2.69121324e-06	1.0
[RightHandRing4]
1	-26.47500038	0	0	0	0	0	1.0
2	-26.47500038	0	0	0	0	0	1.0
3	-26.47500038	0	0	0	0	0	1.0
4	-26.47500038	0	0	0	0	0	1.0
[RightHandMiddle1]
1	-95.32500458	0	0	0.2724478543	7.959144592	103.422287	1.0
2	-95.32500458	0	0	0.2724483311	7.959146976	103.4223251	1.0
3	-95.32500458	0	0	0.2724487484	7.959149837	103.4223633	1.0
4	-95.32500458	0	0	0.2724380791	7.959142208	103.4222717	1.0
[RightHandMiddle2]
1	-36.98199844	0	0	-0.06873571128	7.827571392	94.7851181	1.0
2	-36.98199844	0	0	-0.06872556359	7.827569485	94.78517151	1.0
3	-36.98199844	0	0	-0.06871542335	7.827567577	94.78522491	1.0
4	-36.98199844	0	0	-0.0687232092	7.827558041	94.78511047	1.0
[RightHandMiddle3]
1	-29.50900078	0	0	1.856611448e-06	-0.002022909233	1.577868488e-06	1.0
2	-29.50900078	0	0	1.856611448e-06	-0.002022909233	1.577868488e-06	1.0
3	-29.50900078	0	0	1.856611448e-06	-0.002022909233	1.577868488e-06	1.0
4	-29.50900078	0	0	1.856611448e-06	-0.002022909233	1.577868488e-06	1.0
[RightHandMiddle4]
1	-28.3390007	0	0.0009999999311	0	0	0	1.0
2	-28.3390007	0	0.0009999999311	0	0	0	1.0
3	-28.3390007	0	0.0009999999311	0	0	0	1.0
4	-28.3390007	0	0.0009999999311	0	0	0	1.0
[RightHandIndex1]
1	-91.08300018	-5.167999744	22.60099792	3.534167528	1.945870399	108.7757339	1.0
2	-91.08300018	-5.167999744	22.60099792	3.534166336	1.945870399	108.7757797	1.0
3	-91.08300018	-5.167999744	22.60099792	3.534164906	1.94587028	108.7758179	1.0
4	-91.08300018	-5.167999744	22.60099792	3.534153461	1.945866585	108.7757339	1.0
[RightHandIndex2]
1	-36.76399994	0	0	-1.653340459	7.380066872	95.0959549	1.0
2	-36.76399994	0	0	-1.653328896	7.380072594	95.09602356	1.0
3	-36.76399994	0	0	-1.653317213	7.380078316	95.09609985	1.0
4	-36.76399994	0	0	-1.653324246	7.380067348	95.09598541	1.0
[RightHandIndex3]
1	-28.83100128	0	0	-3.180554719e-15	0	0	1.0
2	-28.83100128	0	0	-3.180554719e-15	0	0	1.0
3	-28.83100128	0	0	-3.180554719e-15	0	0	1.0
4	-28.83100128	0	0	-3.180554719e-15	0	0	1.0
[RightHandIndex4]
1	-23.92700005	0	0	0	0	0	1.0
2	-23.92700005	0	0	0	0	0	1.0
3	-23.92700005	0	0	0	0	0	1.0
4	-23.92700005	0	0	0	0	0	1.0
[RightHandThumb1]
1	-24.64799881	-15.72700024	26.82600021	10.27362061	16.38563728	1.317973852	1.0
2	-24.64799881	-15.72700024	26.82600021	10.27829552	16.39240646	1.31276989	1.0
3	-24.64799881	-15.72700024	26.82600021	10.28296852	16.39917374	1.307566047	1.0
4	-24.64799881	-15.72700024	26.82600021	10.28872299	16.40751839	1.301140785	1.0
[RightHandThumb2]
1	-32.29800034	-18.64699936	18.64699936	-1.242862582	-35.04806519	48.83246613	1.0
2	-32.29800034	-18.64699936	18.64699936	-1.245282054	-35.0465889	48.84313202	1.0
3	-32.29800034	-18.64699936	18.64699936	-1.247701526	-35.0451088	48.85380173	1.0
4	-32.29800034	-18.64699936	18.64699936	-1.250679612	-35.04323959	48.86693573	1.0
[RightHandThumb3]
1	-26.52600098	-15.31399918	15.31399918	-3.81245151e-08	-0.00121095567	-0.001221005921	1.0
2	-26.52600098	-15.31399918	15.31399918	-3.81245151e-08	-0.00121095567	-0.001221005921	1.0
3	-26.52600098	-15.31399918	15.31399918	-3.81245151e-08	-0.00121095567	-0.001221005921	1.0
4	-26.52600098	-15.31399918	15.31399918	-3.81245151e-08	-0.00121095567	-0.001221005921	1.0
[RightHandThumb4]
1	-19.54599953	-11.28499985	11.28499985	0	0	0	1.0
2	-19.54599953	-11.28499985	11.28499985	0	0	0	1.0
3	-19.54599953	-11.28499985	11.28499985	0	0	0	1.0
4	-19.54599953	-11.28499985	11.28499985	0	0	0	1.0
[LeftUpLeg]
1	82.07800293	-67.51699829	-15.99599934	-11.18629742	21.25797462	8.850037575	1.0
2	82.07800293	-67.51699829	-15.99599934	-11.39918995	21.20870209	8.807508469	1.0
3	82.07800293	-67.51699829	-15.99599934	-11.61208153	21.15942764	8.764979362	1.0
4	82.07800293	-67.51699829	-15.99599934	-11.83617878	21.09162521	8.706540108	1.0
[LeftLeg]
1	0	-443.7049866	2.845999956	25.46314049	1.97440052	1.659656167	1.0
2	0	-443.7049866	2.845999956	25.41259956	1.789372802	1.561159849	1.0
3	0	-443.7049866	2.845999956	25.36206055	1.604345202	1.462663412	1.0
4	0	-443.7049866	2.845999956	25.26096535	1.405595183	1.362908363	1.0
[LeftFoot]
1	0	-444.2789917	-29.8219986	-2.595801115	1.173620105	-11.53218555	1.0
2	0	-444.2789917	-29.8219986	-2.549891949	1.14766252	-11.45013523	1.0
3	0	-444.2789917	-29.8219986	-2.503982306	1.121704936	-11.36808586	1.0
4	0	-444.2789917	-29.8219986	-2.428699255	1.093265414	-11.27691174	1.0
[LeftToeBase]
1	0	-87.28699493	107.1060028	1.956764817	-1.118358796e-05	1.410037726e-06	1.0
2	0	-87.28699493	107.1060028	1.798927546	-8.950219126e-06	1.222563697e-06	1.0
3	0	-87.28699493	107.1060028	1.641089916	-6.716850294e-06	1.035089781e-06	1.0
4	0	-87.28699493	107.1060028	1.514636636	-4.437286407e-06	5.769622362e-07	1.0
[RightUpLeg]
1	-82.07800293	-67.51699829	-15.99599934	-2.306461811	-13.41020584	-13.78542233	1.0
2	-82.07800293	-67.51699829	-15.99599934	-2.259656906	-13.29091644	-13.58266735	1.0
3	-82.07800293	-67.51699829	-15.99599934	-2.21285224	-13.17162514	-13.37991333	1.0
4	-82.07800293	-67.51699829	-15.99599934	-2.145593166	-13.02959919	-13.15129852	1.0
[RightLeg]
1	0	-443.7049866	2.861999989	32.87609863	5.767084122	-2.797533751	1.0
2	0	-443.7049866	2.861999989	32.66084671	5.372918129	-3.142872334	1.0
3	0	-443.7049866	2.861999989	32.44559479	4.978751659	-3.488211155	1.0
4	0	-443.7049866	2.861999989	32.16644287	4.518431187	-3.882902861	1.0
[RightFoot]
1	0	-444.2770081	-29.83799934	-20.81051636	1.306503534	11.10246563	1.0
2	0	-444.2770081	-29.83799934	-20.72897339	1.317136049	11.29833126	1.0
3	0	-444.2770081	-29.83799934	-20.64743423	1.327768564	11.49419689	1.0
4	0	-444.2770081	-29.83799934	-20.53108978	1.338198423	11.71837902	1.0
[RightToeBase]
1	0	-87.28699493	107.1060028	-1.540364742	-1.727643212e-05	3.201851541e-06	1.0
2	0	-87.28699493	107.1060028	-1.626065254	-1.134366175e-05	1.766203809e-06	1.0
3	0	-87.28699493	107.1060028	-1.711766005	-5.410892754e-06	3.30555963e-07	1.0
4	0	-87.28699493	107.1060028	-1.787722588	3.816665747e-14	-8.850832387e-07	1.0
[EndOfFile]
